{
 "asset": {
  "version": "2.0",
  "generator": "pybravo scripts/build_autofill_tray_model.py"
 },
 "scene": 0,
 "scenes": [
  {
   "name": "AutofillStation",
   "nodes": [
    0,
    1,
    2,
    3,
    4,
    5
   ]
  }
 ],
 "nodes": [
  {
   "name": "pad",
   "mesh": 0
  },
  {
   "name": "tub",
   "mesh": 1
  },
  {
   "name": "tray",
   "mesh": 2
  },
  {
   "name": "fitting_1",
   "mesh": 3
  },
  {
   "name": "fitting_2",
   "mesh": 4
  },
  {
   "name": "liquid",
   "mesh": 5,
   "translation": [
    0,
    0.023000000000000003,
    0
   ]
  }
 ],
 "meshes": [
  {
   "name": "pad",
   "primitives": [
    {
     "attributes": {
      "POSITION": 0,
      "NORMAL": 1
     },
     "indices": 2,
     "material": 0
    }
   ]
  },
  {
   "name": "tub",
   "primitives": [
    {
     "attributes": {
      "POSITION": 3,
      "NORMAL": 4
     },
     "indices": 5,
     "material": 1
    }
   ]
  },
  {
   "name": "tray",
   "primitives": [
    {
     "attributes": {
      "POSITION": 6,
      "NORMAL": 7
     },
     "indices": 8,
     "material": 2
    }
   ]
  },
  {
   "name": "fitting_1",
   "primitives": [
    {
     "attributes": {
      "POSITION": 9,
      "NORMAL": 10
     },
     "indices": 11,
     "material": 3
    }
   ]
  },
  {
   "name": "fitting_2",
   "primitives": [
    {
     "attributes": {
      "POSITION": 12,
      "NORMAL": 13
     },
     "indices": 14,
     "material": 3
    }
   ]
  },
  {
   "name": "liquid",
   "primitives": [
    {
     "attributes": {
      "POSITION": 15,
      "NORMAL": 16
     },
     "indices": 17,
     "material": 4
    }
   ]
  }
 ],
 "materials": [
  {
   "name": "weigh_pad",
   "pbrMetallicRoughness": {
    "baseColorFactor": [
     0.231,
     0.251,
     0.282,
     1
    ],
    "metallicFactor": 0.25,
    "roughnessFactor": 0.6
   }
  },
  {
   "name": "tub",
   "pbrMetallicRoughness": {
    "baseColorFactor": [
     0.89,
     0.922,
     0.937,
     1
    ],
    "metallicFactor": 0.02,
    "roughnessFactor": 0.55
   }
  },
  {
   "name": "tray",
   "pbrMetallicRoughness": {
    "baseColorFactor": [
     0.839,
     0.886,
     0.914,
     1
    ],
    "metallicFactor": 0.02,
    "roughnessFactor": 0.5
   }
  },
  {
   "name": "fitting",
   "pbrMetallicRoughness": {
    "baseColorFactor": [
     0.914,
     0.875,
     0.769,
     1
    ],
    "metallicFactor": 0.0,
    "roughnessFactor": 0.7
   }
  },
  {
   "name": "liquid",
   "alphaMode": "BLEND",
   "doubleSided": true,
   "pbrMetallicRoughness": {
    "baseColorFactor": [
     0.184,
     0.561,
     0.91,
     0.6
    ],
    "metallicFactor": 0.0,
    "roughnessFactor": 0.15
   }
  }
 ],
 "accessors": [
  {
   "bufferView": 0,
   "componentType": 5126,
   "count": 24,
   "type": "VEC3",
   "min": [
    -0.064,
    0.0,
    -0.044
   ],
   "max": [
    0.064,
    0.01,
    0.044
   ]
  },
  {
   "bufferView": 1,
   "componentType": 5126,
   "count": 24,
   "type": "VEC3"
  },
  {
   "bufferView": 2,
   "componentType": 5123,
   "count": 36,
   "type": "SCALAR"
  },
  {
   "bufferView": 3,
   "componentType": 5126,
   "count": 120,
   "type": "VEC3",
   "min": [
    -0.066,
    0.010000000000000002,
    -0.046
   ],
   "max": [
    0.066,
    0.044000000000000004,
    0.046
   ]
  },
  {
   "bufferView": 4,
   "componentType": 5126,
   "count": 120,
   "type": "VEC3"
  },
  {
   "bufferView": 5,
   "componentType": 5123,
   "count": 180,
   "type": "SCALAR"
  },
  {
   "bufferView": 6,
   "componentType": 5126,
   "count": 120,
   "type": "VEC3",
   "min": [
    -0.057,
    0.02,
    -0.038
   ],
   "max": [
    0.057,
    0.044,
    0.038
   ]
  },
  {
   "bufferView": 7,
   "componentType": 5126,
   "count": 120,
   "type": "VEC3"
  },
  {
   "bufferView": 8,
   "componentType": 5123,
   "count": 180,
   "type": "SCALAR"
  },
  {
   "bufferView": 9,
   "componentType": 5126,
   "count": 86,
   "type": "VEC3",
   "min": [
    0.026,
    0.024700000000000003,
    -0.057999999999999996
   ],
   "max": [
    0.034,
    0.03270000000000001,
    -0.046
   ]
  },
  {
   "bufferView": 10,
   "componentType": 5126,
   "count": 86,
   "type": "VEC3"
  },
  {
   "bufferView": 11,
   "componentType": 5123,
   "count": 240,
   "type": "SCALAR"
  },
  {
   "bufferView": 12,
   "componentType": 5126,
   "count": 86,
   "type": "VEC3",
   "min": [
    0.048,
    0.024700000000000003,
    -0.057999999999999996
   ],
   "max": [
    0.055999999999999994,
    0.03270000000000001,
    -0.046
   ]
  },
  {
   "bufferView": 13,
   "componentType": 5126,
   "count": 86,
   "type": "VEC3"
  },
  {
   "bufferView": 14,
   "componentType": 5123,
   "count": 240,
   "type": "SCALAR"
  },
  {
   "bufferView": 15,
   "componentType": 5126,
   "count": 24,
   "type": "VEC3",
   "min": [
    -0.054,
    0.0,
    -0.034999999999999996
   ],
   "max": [
    0.054,
    0.019000000000000003,
    0.034999999999999996
   ]
  },
  {
   "bufferView": 16,
   "componentType": 5126,
   "count": 24,
   "type": "VEC3"
  },
  {
   "bufferView": 17,
   "componentType": 5123,
   "count": 36,
   "type": "SCALAR"
  }
 ],
 "bufferViews": [
  {
   "buffer": 0,
   "byteOffset": 0,
   "byteLength": 288,
   "target": 34962
  },
  {
   "buffer": 0,
   "byteOffset": 288,
   "byteLength": 288,
   "target": 34962
  },
  {
   "buffer": 0,
   "byteOffset": 576,
   "byteLength": 72,
   "target": 34963
  },
  {
   "buffer": 0,
   "byteOffset": 648,
   "byteLength": 1440,
   "target": 34962
  },
  {
   "buffer": 0,
   "byteOffset": 2088,
   "byteLength": 1440,
   "target": 34962
  },
  {
   "buffer": 0,
   "byteOffset": 3528,
   "byteLength": 360,
   "target": 34963
  },
  {
   "buffer": 0,
   "byteOffset": 3888,
   "byteLength": 1440,
   "target": 34962
  },
  {
   "buffer": 0,
   "byteOffset": 5328,
   "byteLength": 1440,
   "target": 34962
  },
  {
   "buffer": 0,
   "byteOffset": 6768,
   "byteLength": 360,
   "target": 34963
  },
  {
   "buffer": 0,
   "byteOffset": 7128,
   "byteLength": 1032,
   "target": 34962
  },
  {
   "buffer": 0,
   "byteOffset": 8160,
   "byteLength": 1032,
   "target": 34962
  },
  {
   "buffer": 0,
   "byteOffset": 9192,
   "byteLength": 480,
   "target": 34963
  },
  {
   "buffer": 0,
   "byteOffset": 9672,
   "byteLength": 1032,
   "target": 34962
  },
  {
   "buffer": 0,
   "byteOffset": 10704,
   "byteLength": 1032,
   "target": 34962
  },
  {
   "buffer": 0,
   "byteOffset": 11736,
   "byteLength": 480,
   "target": 34963
  },
  {
   "buffer": 0,
   "byteOffset": 12216,
   "byteLength": 288,
   "target": 34962
  },
  {
   "buffer": 0,
   "byteOffset": 12504,
   "byteLength": 288,
   "target": 34962
  },
  {
   "buffer": 0,
   "byteOffset": 12792,
   "byteLength": 72,
   "target": 34963
  }
 ],
 "buffers": [
  {
   "byteLength": 12864,
   "uri": "data:application/octet-stream;base64,"
  }
 ]
}